<?xml version="1.0" encoding="utf-8"?>
<!-- Generator: Adobe Illustrator 24.1.3, SVG Export Plug-In . SVG Version: 6.00 Build 0)  -->
<svg version="1.1" xmlns="http://www.w3.org/2000/svg" xmlns:xlink="http://www.w3.org/1999/xlink" x="0px" y="0px"
	 viewBox="0 0 298.5 156.1" style="enable-background:new 0 0 298.5 156.1;" xml:space="preserve">
<style type="text/css">
	.st0{display:none;}
	.st1{display:inline;fill:#41B149;}
	.st2{display:inline;}
	.st3{fill:#FFFFFF;}
	.st4{fill:#171717;}
	.st5{fill:#F2F1F4;}
	.st6{fill:#5986C5;}
	.st7{fill:#638AC7;}
	.st8{display:inline;fill:none;stroke:#070C11;stroke-miterlimit:10;}
	.st9{display:inline;fill:#D6214E;stroke:#5986C5;stroke-miterlimit:8;}
</style>
<g id="Layer_8" class="st0">
	<rect y="-2.2" class="st1" width="298.5" height="160.4"/>
</g>
<g id="Layer_12">
	<g id="Layer_7" class="st0">
	</g>
</g>
<g id="Background">
	<rect x="-0.1" y="-0.3" class="st3" width="298.6" height="156.4"/>
</g>
<g id="Layer_15">
	<g id="Layer_2">
		<g id="Layer_6">
		</g>
	</g>
</g>
<g id="Layer_13">
</g>
<g id="Layer_14">
</g>
<g id="Layer_3">
</g>
<g id="Layer_4">
</g>
<g id="Layer_5">
</g>
<g id="Layer_1">
	<g>
		<g>
			<path class="st4" d="M169.4,41.9c-0.8,1-1.2,2.3-1.2,4v5.8h7.4l-0.3,2.2h-7.2v20h-2.7v-20h-4.7v-2.2h4.7V46c0-1.6,0.3-3,0.9-4.2
				c0.6-1.2,1.5-2.1,2.6-2.7c1.1-0.6,2.4-1,3.9-1c0.9,0,1.7,0.1,2.5,0.2c0.8,0.2,1.5,0.4,2.3,0.7l-0.8,2.2c-0.7-0.2-1.4-0.4-2-0.6
				c-0.6-0.1-1.2-0.2-1.9-0.2C171.5,40.4,170.2,40.9,169.4,41.9z"/>
			<path class="st4" d="M182,72.8c-1.5-1-2.7-2.4-3.5-4.2c-0.8-1.8-1.2-3.8-1.2-6c0-2.6,0.5-4.8,1.5-6.6c1-1.7,2.3-3,4-3.8
				c1.6-0.8,3.5-1.2,5.6-1.2c2.2,0,4.1,0.5,5.7,1.5c1.6,1,2.7,2.4,3.5,4.1c0.8,1.8,1.2,3.7,1.2,6c0,2.7-0.5,4.9-1.4,6.6
				c-1,1.7-2.3,3-3.9,3.8c-1.6,0.8-3.5,1.2-5.7,1.2C185.4,74.4,183.5,73.9,182,72.8z M194,69.6c1.3-1.7,2-4,2-6.9
				c0-2.8-0.6-5.1-1.9-6.8c-1.3-1.7-3.3-2.5-5.9-2.5c-2.8,0-4.8,0.8-6.1,2.5c-1.3,1.7-2,3.9-2,6.8c0,2.9,0.7,5.1,2,6.8
				c1.3,1.7,3.3,2.6,6,2.6S192.7,71.2,194,69.6z"/>
			<path class="st4" d="M207.5,73.1c-1.5-0.9-2.6-2.1-3.4-3.8c-0.8-1.7-1.2-3.7-1.2-6c0-2.7,0.5-5,1.6-6.8c1-1.8,2.4-3.2,4-4
				c1.6-0.9,3.3-1.3,5.1-1.3c2.2,0,4.4,0.6,6.7,1.8l-1,2.1c-1.1-0.5-2.1-0.9-3.1-1.2s-1.9-0.4-2.9-0.4c-1.6,0-3,0.4-4.1,1.2
				c-1.2,0.8-2.1,2-2.7,3.5c-0.6,1.5-0.9,3.2-0.9,5.1c0,5.8,2.5,8.8,7.4,8.8c1.2,0,2.4-0.2,3.5-0.6c1.1-0.4,2.2-0.9,3.3-1.6l1.1,2
				c-2.5,1.8-5.2,2.6-8.2,2.6C210.7,74.4,209,74,207.5,73.1z"/>
			<path class="st4" d="M243.9,51.4v22.5h-2.5l-0.2-2.1c-1.2,0.8-2.6,1.4-4,1.9c-1.4,0.5-2.8,0.7-4.3,0.7c-2.1,0-3.8-0.5-5.2-1.6
				c-1.4-1.1-2.1-2.9-2.1-5.4V51.7l2.7-0.3v15.2c0,1.3,0.2,2.4,0.5,3.1c0.3,0.8,0.9,1.4,1.6,1.8c0.8,0.4,1.8,0.6,3.1,0.6
				c1.2,0,2.5-0.2,3.8-0.7s2.5-1.1,3.7-1.8V51.7L243.9,51.4z"/>
			<path class="st4" d="M253.6,73.7c-1.5-0.5-2.9-1.2-4.3-2.2l1.3-2c2.5,1.8,5.1,2.7,7.9,2.7c1.8,0,3.2-0.4,4.3-1.1
				c1.1-0.7,1.6-1.7,1.6-3c0-0.8-0.2-1.5-0.6-2.1c-0.4-0.6-1-1-1.8-1.4c-0.8-0.4-1.9-0.8-3.3-1.2l-1.7-0.5c-2.2-0.5-3.9-1.3-5-2.2
				c-1.1-0.9-1.7-2.1-1.7-3.7c0-1.2,0.3-2.2,1-3.1c0.7-0.9,1.6-1.6,2.8-2.1c1.2-0.5,2.5-0.7,4-0.7c1.4,0,2.8,0.2,4,0.5
				c1.3,0.3,2.6,0.9,4.1,1.7l-1.2,2c-1.4-0.7-2.6-1.2-3.7-1.5c-1.1-0.3-2.2-0.4-3.4-0.4c-1.6,0-2.8,0.3-3.8,0.9
				c-0.9,0.6-1.4,1.5-1.4,2.6c0,0.7,0.2,1.2,0.5,1.7c0.3,0.4,0.8,0.8,1.5,1.1c0.7,0.3,1.6,0.6,2.8,0.9l1.7,0.5
				c1.8,0.5,3.3,1,4.4,1.6c1.1,0.6,1.9,1.3,2.5,2.1c0.5,0.8,0.8,1.9,0.8,3.1c0,1.3-0.3,2.4-1,3.4c-0.7,1-1.7,1.8-3,2.3
				s-2.8,0.8-4.6,0.8C256.7,74.4,255,74.2,253.6,73.7z"/>
		</g>
		<g>
			<path class="st4" d="M41.9,104c1.4,1.3,2.1,3.4,2.1,6.2c0,2.8-0.8,4.8-2.3,6.2c-1.5,1.3-3.8,2-6.6,2h-3.7V102h4.4
				C38.4,102,40.5,102.7,41.9,104z M39,116.5c1.1-0.4,2-1.1,2.6-2.1c0.6-1,1-2.4,1-4.2c0-2.3-0.6-4.1-1.6-5.2
				c-1.1-1.2-2.8-1.7-5.2-1.7h-3.1v13.9h2.3C36.6,117.1,37.9,116.9,39,116.5z"/>
			<path class="st4" d="M53.2,102l6.5,16.2v0.1h-1.5l-2-5.1h-7.6l-2,5.1h-1.4v-0.1l6.4-16.2H53.2z M49.1,112h6.6l-3.3-8.5L49.1,112z
				"/>
			<path class="st4" d="M71.7,102v1.2h-5.9v15.1h-1.4v-15.1h-5.9V102H71.7z"/>
			<path class="st4" d="M78.4,102l6.5,16.2v0.1h-1.5l-2-5.1h-7.6l-2,5.1h-1.4v-0.1l6.4-16.2H78.4z M74.3,112h6.6l-3.3-8.5L74.3,112z
				"/>
		</g>
		<g>
			<path class="st4" d="M108,117.6c-0.9-0.3-1.8-0.8-2.6-1.4l0.7-1c0.7,0.6,1.5,1,2.4,1.2c0.9,0.3,1.7,0.4,2.5,0.4
				c1.4,0,2.5-0.3,3.1-0.9c0.7-0.6,1-1.4,1-2.4c0-0.7-0.2-1.2-0.5-1.6s-0.7-0.8-1.3-1.1c-0.5-0.3-1.3-0.6-2.2-1l-0.5-0.2
				c-1-0.4-1.9-0.7-2.5-1.1s-1.1-0.8-1.5-1.3c-0.4-0.5-0.6-1.2-0.6-2.1c0-0.9,0.2-1.6,0.7-2.2s1.1-1.1,1.9-1.4
				c0.8-0.3,1.6-0.5,2.6-0.5s1.8,0.1,2.6,0.4c0.8,0.2,1.7,0.6,2.5,1.2l-0.7,1c-0.8-0.5-1.5-0.8-2.2-1c-0.7-0.2-1.5-0.3-2.3-0.3
				c-0.6,0-1.2,0.1-1.8,0.3s-1,0.5-1.4,0.9c-0.4,0.4-0.6,1-0.6,1.6c0,0.6,0.1,1,0.4,1.4c0.2,0.4,0.6,0.7,1.1,1
				c0.5,0.3,1.2,0.6,2.2,0.9l0.5,0.2c1.1,0.4,1.9,0.7,2.6,1.1c0.7,0.3,1.2,0.8,1.7,1.4c0.5,0.6,0.7,1.4,0.7,2.4
				c0,0.9-0.2,1.7-0.7,2.4c-0.4,0.7-1.1,1.2-1.9,1.5c-0.8,0.4-1.9,0.5-3,0.5C109.9,118,108.9,117.9,108,117.6z"/>
			<path class="st4" d="M122.7,116.9c-1.1-0.7-1.9-1.7-2.5-3c-0.6-1.3-0.9-2.8-0.9-4.4c0-1.9,0.3-3.4,1-4.7c0.7-1.3,1.6-2.2,2.7-2.8
				s2.4-0.9,3.7-0.9c1.5,0,2.9,0.4,4,1.1c1.1,0.7,1.9,1.7,2.5,3c0.6,1.3,0.9,2.8,0.9,4.4c0,1.9-0.3,3.4-1,4.7s-1.6,2.2-2.7,2.8
				c-1.1,0.6-2.4,0.9-3.7,0.9C125.1,118,123.8,117.7,122.7,116.9z M129.9,115.9c0.9-0.6,1.6-1.5,2.1-2.5c0.5-1.1,0.7-2.3,0.7-3.7
				c0-1.4-0.2-2.7-0.7-3.8c-0.4-1.1-1.1-2-2-2.6c-0.9-0.6-2-0.9-3.3-0.9c-1.3,0-2.4,0.3-3.3,0.9s-1.6,1.4-2.1,2.5
				c-0.5,1.1-0.7,2.3-0.7,3.7s0.2,2.6,0.7,3.8c0.4,1.1,1.1,2,2,2.6c0.9,0.6,2,0.9,3.3,0.9C127.9,116.8,129,116.5,129.9,115.9z"/>
			<path class="st4" d="M147.6,102.6h-8.2v6.6h7.2l-0.2,1.2h-7v7.3H138v-16.3h9.6V102.6z"/>
			<path class="st4" d="M162.4,101.4v1.2h-5.9v15.1h-1.4v-15.1h-5.9v-1.2H162.4z"/>
			<path class="st4" d="M185.2,101.4v0.1l-4.8,16.2h-1.5l-3.5-11.8c-0.4-1.4-0.7-2.5-0.9-3.3c-0.3,1.2-0.6,2.3-0.9,3.3l-3.5,11.8
				h-1.5l-4.8-16.2v-0.1h1.4l3.3,11.4c0.4,1.2,0.7,2.3,0.9,3.4l0.2-0.9c0.2-1.1,0.4-1.9,0.6-2.5l3.5-11.4h1.6l3.5,11.4
				c0.1,0.4,0.2,0.9,0.4,1.4c0.1,0.6,0.2,0.9,0.3,1.1l0.2,0.9c0.3-1.3,0.6-2.5,0.9-3.4l3.2-11.4H185.2z"/>
			<path class="st4" d="M194,101.4l6.5,16.2v0.1H199l-2-5.1h-7.6l-2,5.1H186v-0.1l6.4-16.2H194z M189.9,111.4h6.6l-3.3-8.5
				L189.9,111.4z"/>
			<path class="st4" d="M214.9,117.6v0.1h-1.6l-5.2-6.8H205v6.8h-1.4v-16.3h4.8c1.2,0,2.2,0.2,3.1,0.6c0.9,0.4,1.5,0.9,2,1.6
				c0.5,0.7,0.7,1.5,0.7,2.5c0,0.8-0.2,1.6-0.5,2.2c-0.3,0.7-0.8,1.2-1.5,1.7c-0.7,0.5-1.5,0.8-2.4,0.9L214.9,117.6z M205,109.8h3.3
				c1.4,0,2.5-0.3,3.3-1s1.1-1.5,1.1-2.6s-0.4-2-1.1-2.6s-1.8-0.9-3.3-0.9H205V109.8z"/>
			<path class="st4" d="M219.4,116.5h8.3v1.2H218v-16.3h9.6v1.2h-8.2v6.2h7.2l-0.2,1.2h-7V116.5z"/>
		</g>
		<g>
			<path class="st4" d="M256.2,101.4l6.5,16.2v0.1h-1.5l-2-5.1h-7.6l-2,5.1h-1.4v-0.1l6.4-16.2H256.2z M252.1,111.4h6.6l-3.3-8.5
				L252.1,111.4z"/>
			<path class="st4" d="M265.8,117.7v-16.3h1.4v16.3H265.8z"/>
		</g>
		<g>
			<polygon class="st7" points="94.5,116 94.5,116 95.7,114.8 95.7,110.1 100.4,110.1 101.6,108.9 101.6,108.9 95.7,108.9 95.7,103 
				94.5,104.2 94.5,108.9 89.8,108.9 88.6,110.1 94.5,110.1 			"/>
		</g>
		<g>
			<polygon class="st7" points="237.4,116 237.4,116 238.6,114.8 238.6,110.1 243.3,110.1 244.4,108.9 244.4,108.9 238.6,108.9 
				238.6,103 237.4,104.2 237.4,108.9 232.7,108.9 231.5,110.1 237.4,110.1 			"/>
		</g>
		<g>
			<path class="st4" d="M76.5,74.7c-2.7,0-5-0.6-7-1.7S66,70.4,65,68.4c-1.1-2-1.6-4.3-1.6-7V51.1c0-2.7,0.5-5,1.6-7
				s2.6-3.6,4.6-4.7c2-1.1,4.3-1.7,7-1.7c2.7,0,5,0.6,7,1.7c2,1.1,3.5,2.7,4.6,4.7s1.6,4.3,1.6,7v10.3c0,2.7-0.5,5-1.6,7
				c-1.1,2-2.6,3.6-4.6,4.7C81.5,74.2,79.2,74.7,76.5,74.7z M76.5,67.9c1.9,0,3.3-0.6,4.5-1.7c1.1-1.2,1.7-2.7,1.7-4.6V50.9
				c0-1.9-0.6-3.5-1.7-4.6c-1.1-1.2-2.6-1.7-4.5-1.7c-1.9,0-3.3,0.6-4.5,1.7c-1.1,1.2-1.7,2.7-1.7,4.6v10.6c0,1.9,0.6,3.4,1.7,4.6
				C73.2,67.3,74.7,67.9,76.5,67.9z"/>
			<path class="st4" d="M97,74.3V38.1h6.8v36.2H97z M99.7,59.8v-6.6h12.6c1.1,0,1.9-0.4,2.6-1.2c0.6-0.8,1-1.8,1-3.1
				c0-1.3-0.3-2.3-1-3.1c-0.6-0.8-1.5-1.2-2.6-1.2H99.7v-6.6h13.1c2,0,3.8,0.4,5.3,1.3c1.5,0.9,2.7,2.2,3.5,3.8
				c0.8,1.6,1.2,3.5,1.2,5.7c0,2.2-0.4,4.1-1.3,5.7c-0.8,1.6-2,2.9-3.5,3.8s-3.2,1.3-5.3,1.3H99.7z M116.1,74.3l-8.8-15.7l7.3-1.1
				l9.8,16.8H116.1z"/>
			<path class="st4" d="M130.2,74.3V38.1h6.8v36.2H130.2z M132.7,44.7v-6.6h21.8v6.6H132.7z M132.7,59.7v-6.6h19.1v6.6H132.7z
				 M132.7,74.3v-6.6h21.8v6.6H132.7z"/>
		</g>
		<g>
			<polygon class="st4" points="38.2,51.7 38.2,38.1 31.3,38.1 31.3,62 			"/>
			<polygon class="st4" points="47.8,53.1 58.6,38.1 50,38.1 31.3,66.4 31.3,74.3 38.2,74.3 38.2,66.5 43.3,59.3 52,74.3 60.1,74.3 
							"/>
		</g>
		<polygon class="st7" points="31.3,89.4 264.8,89.4 267.2,87 267.2,87 33.7,87 		"/>
	</g>
</g>
<g id="Layer_9" class="st0">
	<g id="Layer_11" class="st2">
	</g>
	<g id="_x37_vVbur.tif" class="st2">
		
			<image style="overflow:visible;" width="250" height="280" id="Layer_0_2_" xlink:href="2F8A82E723F55EC4.png"  transform="matrix(0.852 0 0 0.8643 -41.7161 136.7418)">
		</image>
	</g>
</g>
</svg>
