<svg xmlns="http://www.w3.org/2000/svg" xmlns:xlink="http://www.w3.org/1999/xlink" version="1.1" x="0px" y="0px" viewBox="0 0 298.5 126.1" style="enable-background:new 0 0 298.5 126.1;" xml:space="preserve">
<style type="text/css">
	.st0{display:none;}
	.st1{display:inline;fill:#41B149;}
	.st2{display:inline;}
	.st3{fill:transparent;}
	.st4{fill:#171717;}
	.st5{fill:#F2F1F4;}
	.st6{fill:#5986C5;}
	.st7{fill:#638AC7;}
	.st8{display:inline;fill:none;stroke:#070C11;stroke-miterlimit:10;}
	.st9{display:inline;fill:#D6214E;stroke:#5986C5;stroke-miterlimit:8;}
</style>
<g id="Layer_8" class="st0">
	<rect y="-2.2" class="st1" width="298.5" height="160.4"/>
</g>
<g id="Layer_12">
	<g id="Layer_7" class="st0">
	</g>
</g>
<g id="Background">
	<rect x="-0.1" y="-0.3" class="st3" width="298.6" height="156.4"/>
</g>
<g id="Layer_15">
	<g id="Layer_2">
		<g id="Layer_6">
		</g>
	</g>
</g>
<g id="Layer_13">
</g>
<g id="Layer_14">
</g>
<g id="Layer_3">
</g>
<g id="Layer_4">
</g>
<g id="Layer_5">
</g>
<g id="Layer_1">
	<g>
		<g>
			<path class="st4" d="M169.4,41.9c-0.8,1-1.2,2.3-1.2,4v5.8h7.4l-0.3,2.2h-7.2v20h-2.7v-20h-4.7v-2.2h4.7V46c0-1.6,0.3-3,0.9-4.2     c0.6-1.2,1.5-2.1,2.6-2.7c1.1-0.6,2.4-1,3.9-1c0.9,0,1.7,0.1,2.5,0.2c0.8,0.2,1.5,0.4,2.3,0.7l-0.8,2.2c-0.7-0.2-1.4-0.4-2-0.6     c-0.6-0.1-1.2-0.2-1.9-0.2C171.5,40.4,170.2,40.9,169.4,41.9z"/>
			<path class="st4" d="M182,72.8c-1.5-1-2.7-2.4-3.5-4.2c-0.8-1.8-1.2-3.8-1.2-6c0-2.6,0.5-4.8,1.5-6.6c1-1.7,2.3-3,4-3.8     c1.6-0.8,3.5-1.2,5.6-1.2c2.2,0,4.1,0.5,5.7,1.5c1.6,1,2.7,2.4,3.5,4.1c0.8,1.8,1.2,3.7,1.2,6c0,2.7-0.5,4.9-1.4,6.6     c-1,1.7-2.3,3-3.9,3.8c-1.6,0.8-3.5,1.2-5.7,1.2C185.4,74.4,183.5,73.9,182,72.8z M194,69.6c1.3-1.7,2-4,2-6.9     c0-2.8-0.6-5.1-1.9-6.8c-1.3-1.7-3.3-2.5-5.9-2.5c-2.8,0-4.8,0.8-6.1,2.5c-1.3,1.7-2,3.9-2,6.8c0,2.9,0.7,5.1,2,6.8     c1.3,1.7,3.3,2.6,6,2.6S192.7,71.2,194,69.6z"/>
			<path class="st4" d="M207.5,73.1c-1.5-0.9-2.6-2.1-3.4-3.8c-0.8-1.7-1.2-3.7-1.2-6c0-2.7,0.5-5,1.6-6.8c1-1.8,2.4-3.2,4-4     c1.6-0.9,3.3-1.3,5.1-1.3c2.2,0,4.4,0.6,6.7,1.8l-1,2.1c-1.1-0.5-2.1-0.9-3.1-1.2s-1.9-0.4-2.9-0.4c-1.6,0-3,0.4-4.1,1.2     c-1.2,0.8-2.1,2-2.7,3.5c-0.6,1.5-0.9,3.2-0.9,5.1c0,5.8,2.5,8.8,7.4,8.8c1.2,0,2.4-0.2,3.5-0.6c1.1-0.4,2.2-0.9,3.3-1.6l1.1,2     c-2.5,1.8-5.2,2.6-8.2,2.6C210.7,74.4,209,74,207.5,73.1z"/>
			<path class="st4" d="M243.9,51.4v22.5h-2.5l-0.2-2.1c-1.2,0.8-2.6,1.4-4,1.9c-1.4,0.5-2.8,0.7-4.3,0.7c-2.1,0-3.8-0.5-5.2-1.6     c-1.4-1.1-2.1-2.9-2.1-5.4V51.7l2.7-0.3v15.2c0,1.3,0.2,2.4,0.5,3.1c0.3,0.8,0.9,1.4,1.6,1.8c0.8,0.4,1.8,0.6,3.1,0.6     c1.2,0,2.5-0.2,3.8-0.7s2.5-1.1,3.7-1.8V51.7L243.9,51.4z"/>
			<path class="st4" d="M253.6,73.7c-1.5-0.5-2.9-1.2-4.3-2.2l1.3-2c2.5,1.8,5.1,2.7,7.9,2.7c1.8,0,3.2-0.4,4.3-1.1     c1.1-0.7,1.6-1.7,1.6-3c0-0.8-0.2-1.5-0.6-2.1c-0.4-0.6-1-1-1.8-1.4c-0.8-0.4-1.9-0.8-3.3-1.2l-1.7-0.5c-2.2-0.5-3.9-1.3-5-2.2     c-1.1-0.9-1.7-2.1-1.7-3.7c0-1.2,0.3-2.2,1-3.1c0.7-0.9,1.6-1.6,2.8-2.1c1.2-0.5,2.5-0.7,4-0.7c1.4,0,2.8,0.2,4,0.5     c1.3,0.3,2.6,0.9,4.1,1.7l-1.2,2c-1.4-0.7-2.6-1.2-3.7-1.5c-1.1-0.3-2.2-0.4-3.4-0.4c-1.6,0-2.8,0.3-3.8,0.9     c-0.9,0.6-1.4,1.5-1.4,2.6c0,0.7,0.2,1.2,0.5,1.7c0.3,0.4,0.8,0.8,1.5,1.1c0.7,0.3,1.6,0.6,2.8,0.9l1.7,0.5     c1.8,0.5,3.3,1,4.4,1.6c1.1,0.6,1.9,1.3,2.5,2.1c0.5,0.8,0.8,1.9,0.8,3.1c0,1.3-0.3,2.4-1,3.4c-0.7,1-1.7,1.8-3,2.3     s-2.8,0.8-4.6,0.8C256.7,74.4,255,74.2,253.6,73.7z"/>
		</g>
		<g>
			<path class="st4" d="M76.5,74.7c-2.7,0-5-0.6-7-1.7S66,70.4,65,68.4c-1.1-2-1.6-4.3-1.6-7V51.1c0-2.7,0.5-5,1.6-7     s2.6-3.6,4.6-4.7c2-1.1,4.3-1.7,7-1.7c2.7,0,5,0.6,7,1.7c2,1.1,3.5,2.7,4.6,4.7s1.6,4.3,1.6,7v10.3c0,2.7-0.5,5-1.6,7     c-1.1,2-2.6,3.6-4.6,4.7C81.5,74.2,79.2,74.7,76.5,74.7z M76.5,67.9c1.9,0,3.3-0.6,4.5-1.7c1.1-1.2,1.7-2.7,1.7-4.6V50.9     c0-1.9-0.6-3.5-1.7-4.6c-1.1-1.2-2.6-1.7-4.5-1.7c-1.9,0-3.3,0.6-4.5,1.7c-1.1,1.2-1.7,2.7-1.7,4.6v10.6c0,1.9,0.6,3.4,1.7,4.6     C73.2,67.3,74.7,67.9,76.5,67.9z"/>
			<path class="st4" d="M97,74.3V38.1h6.8v36.2H97z M99.7,59.8v-6.6h12.6c1.1,0,1.9-0.4,2.6-1.2c0.6-0.8,1-1.8,1-3.1     c0-1.3-0.3-2.3-1-3.1c-0.6-0.8-1.5-1.2-2.6-1.2H99.7v-6.6h13.1c2,0,3.8,0.4,5.3,1.3c1.5,0.9,2.7,2.2,3.5,3.8     c0.8,1.6,1.2,3.5,1.2,5.7c0,2.2-0.4,4.1-1.3,5.7c-0.8,1.6-2,2.9-3.5,3.8s-3.2,1.3-5.3,1.3H99.7z M116.1,74.3l-8.8-15.7l7.3-1.1     l9.8,16.8H116.1z"/>
			<path class="st4" d="M130.2,74.3V38.1h6.8v36.2H130.2z M132.7,44.7v-6.6h21.8v6.6H132.7z M132.7,59.7v-6.6h19.1v6.6H132.7z      M132.7,74.3v-6.6h21.8v6.6H132.7z"/>
		</g>
		<g>
			<polygon class="st4" points="38.2,51.7 38.2,38.1 31.3,38.1 31.3,62    "/>
			<polygon class="st4" points="47.8,53.1 58.6,38.1 50,38.1 31.3,66.4 31.3,74.3 38.2,74.3 38.2,66.5 43.3,59.3 52,74.3 60.1,74.3         "/>
		</g>
		<polygon class="st7" points="31.3,89.4 264.8,89.4 267.2,87 267.2,87 33.7,87   "/>
	</g>
</g>

</svg>