<svg xmlns="http://www.w3.org/2000/svg" version="1.1" xmlns:xlink="http://www.w3.org/1999/xlink" width="1000" height="1000"><g clip-path="url(#SvgjsClipPath1147)"><rect width="1000" height="1000" fill="#ffffff"></rect><g transform="matrix(7.057163020465773,0,0,7.057163020465773,0,0)"><svg xmlns="http://www.w3.org/2000/svg" version="1.1" xmlns:xlink="http://www.w3.org/1999/xlink" width="141.7" height="141.7"><svg version="1.1" xmlns="http://www.w3.org/2000/svg" xmlns:xlink="http://www.w3.org/1999/xlink" x="0px" y="0px" viewBox="0 0 141.7 141.7" style="enable-background:new 0 0 141.7 141.7;" xml:space="preserve">
<style type="text/css">
	.st0{display:none;}
	.st1{display:inline;fill:#41B149;}
	.st2{display:inline;}
	.st3{fill:#FFFFFF;}
	.st4{fill:#171717;}
	.st5{fill:#F2F1F4;}
	.st6{fill:#5986C5;}
	.st7{fill:#638AC7;}
	.st8{display:inline;fill:none;stroke:#070C11;stroke-miterlimit:10;}
	.st9{display:inline;fill:#D6214E;stroke:#5986C5;stroke-miterlimit:8;}
</style>
<g id="Layer_8" class="st0">
</g>
<g id="Layer_12">
	<g id="Layer_7" class="st0">
	</g>
</g>
<g id="Background">
	<rect x="0.6" class="st3" width="141.7" height="141.7"></rect>
</g>
<g id="Layer_15">
	<g id="Layer_2">
		<g id="Layer_6">
		</g>
	</g>
</g>
<g id="Layer_13">
</g>
<g id="Layer_14">
</g>
<g id="Layer_3">
</g>
<g id="Layer_4">
</g>
<g id="Layer_5">
</g>
<g id="Layer_1">
	<g>
		<g>
			<path class="st4" d="M89.8,50c-0.8,1-1.2,2.3-1.2,4v5.8H96l-0.3,2.2h-7.2v20h-2.7v-20h-4.7v-2.2h4.7v-5.7c0-1.6,0.3-3,0.9-4.2
				c0.6-1.2,1.5-2.1,2.6-2.7c1.1-0.6,2.4-1,3.9-1c0.9,0,1.7,0.1,2.5,0.2c0.8,0.2,1.5,0.4,2.3,0.7l-0.8,2.2c-0.7-0.2-1.4-0.4-2-0.6
				c-0.6-0.1-1.2-0.2-1.9-0.2C91.9,48.5,90.6,49,89.8,50z"></path>
		</g>
		<g>
			<polygon class="st4" points="52.3,59.8 52.3,46.2 45.5,46.2 45.5,70.2 			"></polygon>
			<polygon class="st4" points="61.9,61.2 72.7,46.2 64.2,46.2 45.5,74.5 45.5,82.5 52.3,82.5 52.3,74.6 57.5,67.4 66.1,82.5 
				74.2,82.5 			"></polygon>
		</g>
		<g>
			<polygon class="st7" points="45.5,93.1 45.5,93.1 45.5,93.1 			"></polygon>
			<polygon class="st7" points="98.2,93.1 98.2,93.1 47.9,93.1 45.5,95.5 45.5,95.5 95.8,95.5 			"></polygon>
		</g>
	</g>
</g>
<g id="Layer_9" class="st0">
	<g id="Layer_11" class="st2">
	</g>
	<g id="_x37_vVbur.tif" class="st2">
		
			<image style="overflow:visible;" width="250" height="280" id="Layer_0_2_" xlink:href="36B2D37E63BBA133.png" transform="matrix(0.852 0 0 0.8643 115.0483 -33.5297)">
		</image>
	</g>
</g>
</svg></svg></g></g><defs><clipPath id="SvgjsClipPath1147"><rect width="1000" height="1000" x="0" y="0" rx="200" ry="200"></rect></clipPath></defs></svg>